<svg version="1.1" id="Layer_1" xmlns="http://www.w3.org/2000/svg" xmlns:xlink="http://www.w3.org/1999/xlink" x="0" y="0" viewBox="0 0 220 48" xml:space="preserve"><style>.st0{fill:#fff}.st1{fill-rule:evenodd;clip-rule:evenodd}.st1,.st2{fill:#004a92}</style><symbol id="New_Symbol_1" viewBox="-44.2 -44.2 88.5 88.5"><path class="st0" d="M-43.3 0c0 23.9 19.4 43.3 43.3 43.3S43.3 23.9 43.3 0 23.9-43.3 0-43.3-43.3-23.9-43.3 0z"/><path class="st1" d="M-25-10.9l.6-1.3-6.9-3.2-.6 1.3 6.9 3.2zm-7.5-3.6l.5-1.2-1.1-.5-.5 1.2 1.1.5z"/><path class="st2" d="M-31.6-8l.4-1.3c-.4-.1-.7-.2-.8-.4-.2-.2-.3-.5-.2-.8.2-.5.5-.7.9-.5.2.1.4.2.5.4.1.1.1.4.2.7.2 1 .5 1.6.7 2 .3.5.7.9 1.3 1.1.7.2 1.2.2 1.7-.1.5-.3.8-.8 1.1-1.4.5-1.5 0-2.4-1.5-2.9l-.5-.2-.4 1.3.4.1c.8.3 1.1.7.9 1.2-.1.6-.5.8-1 .6-.4-.1-.6-.4-.8-.8-.1-.5-.3-.9-.4-1.4-.2-.5-.4-1-.6-1.3-.2-.3-.6-.6-1-.7-1.3-.4-2.1.1-2.6 1.5-.3.9-.2 1.6.3 2.1.3.3.8.5 1.4.8zm-1.4.6l-1.1-.2-.6 4.7 1.1.1.2-1.6 6.4.9.2-1.4-6.4-.9.2-1.6z"/><path class="st1" d="M-27.2-.8l-.1-1.5-7.5 2.1.1 1.9 7.6 1.4-.1-1.5-1.9-.3-.1-1.7 2-.4zM-32.3.3l2.1-.5V1l-2.2-.3c-.3 0-.7-.1-1.1-.1h-.5c.4 0 1-.1 1.7-.3z"/><path class="st2" d="M-32.3 7.7l-1.4.3.3 1.4 7.4-1.6-.3-1.4-2.9-.5c-.9-.2-2-.3-3.2-.4 1.8-.2 3.2-.5 4.2-.7l1.4-.3-.2-1.4-7.4 1.6.3 1.4 2.9.5c1 .2 2.1.3 3.2.4-2 .2-3.4.5-4.3.7z"/><path class="st1" d="M-24.7 10.7l-1-2.3-6.9 3.1.9 2.1c.3.7.7 1.1 1.2 1.2.4.1.9 0 1.4-.2.8-.3 1.1-.8 1.1-1.5.4.6 1.1.7 2 .3.4-.2.6-.3.8-.5.4-.3.6-.7.7-1 0-.4 0-.8-.2-1.2zm-4.6.8l.1.2c.2.5.3.8.2 1-.1.1-.3.3-.7.5-.3.1-.5.2-.6.1-.2 0-.3-.2-.5-.5l-.3-.6 1.8-.7zm3.1-1.4l.1.3c.2.4.3.7.3.8 0 .3-.3.6-.8.8-.4.2-.7.2-.9.2-.2-.1-.4-.3-.6-.7l-.2-.5 2.1-.9z"/><path class="st2" d="M-23.7 17l-4.2 3 .8 1.2 4.3-3c.7-.5 1.1-1 1.2-1.5.1-.5-.1-1.2-.6-1.9s-1-1.1-1.6-1.2c-.5-.1-1.1.2-1.8.7l-4.3 3 .8 1.2 4.2-3c.4-.3.7-.4.9-.5.3-.1.6.1.9.5.2.3.3.6.1.9-.1.1-.4.3-.7.6zm6.1 3l-2.9-2.8-5.2 5.5 1 1 4.5-4.7 1.9 1.8.7-.8z"/><path class="st1" d="M-14.7 22l-1.3-.7-2.1 7.5 1.7.9 5.2-5.8-1.3-.7-1.3 1.5-1.4-.8.5-1.9zm-1.6 5l.7-2.1 1.1.6-1.4 1.7c-.2.3-.4.5-.6.8-.1.1-.2.2-.3.4 0-.2.2-.7.5-1.4zm5.6.5l-.2-.1 1-3.1-1.3-.4-2.3 7.2 2.5.8c1.4.4 2.2.1 2.6-1.1.3-1.1.2-1.8-.5-2.1.7.1 1.2-.2 1.5-1 .5-1.4.8-2.1 1-2.2v-.1l-1.5-.4c-.1.2-.4.8-.7 1.8-.1.3-.2.6-.3.7-.2.2-.3.3-.6.3-.2 0-.6-.1-1.2-.3zm-1.2 3l.6-2 1.1.3c.5.2.7.6.4 1.3-.1.4-.3.6-.5.7-.2.1-.4.1-.7 0l-.9-.3z"/><path class="st2" d="M-2.1 26l-3.9-.5-1 7.5 4 .5.1-1.1-2.5-.3.2-1.9 2.3.3.2-1.1-2.4-.3.3-2.3 2.6.3.1-1.1zm4.4-.2l-4.1.1.3 7.6 1.4-.1-.2-6.4 2.6-.1v-1.1z"/><path class="st1" d="M8.5 32.9l-1.2.4.3 1.1 1.2-.4-.3-1.1zm1.9-.5l-1.2.4.3 1.1 1.2-.4-.3-1.1zM8 26.8l1.5 4.9 1.3-.4-1.5-5c-.3-.8-.6-1.4-1-1.6-.5-.3-1.1-.3-2 0-.9.3-1.4.6-1.6 1.1-.2.5-.2 1.1.1 1.9l1.5 5 1.4-.4-1.5-4.9c-.2-.4-.2-.8-.2-1 .1-.3.3-.6.7-.7.4-.1.7-.1.9.2.2.2.3.5.4.9z"/><path class="st2" d="M15.1 27.7l.7 1.3 1.2-.7-3.5-6.7-1.3.7.3 2.9c.1.9.3 2 .5 3.1-.7-1.7-1.3-3-1.8-3.9l-.7-1.3-1.2.7 3.6 6.7 1.3-.7-.4-2.8c-.1-1-.3-2.1-.5-3.1.8 1.7 1.4 3 1.8 3.8z"/><path class="st1" d="M15.1 20.4l-1.1.8 4.4 6.1 1.1-.8-4.4-6.1zm4.9 6.8l-1 .8.7.9 1-.8-.7-.9zm-.9-6.7l3.9 3 1.1-1-6.4-4.4-1.4 1.3 3.9 6.7 1.1-1-2.7-4.2c-.2-.3-.5-.7-.8-1.1-.3-.3-.4-.5-.4-.5s.2.1.5.4c.5.2.9.5 1.2.8z"/><path class="st2" d="M21.4 13.6L19 16.8l6.2 4.4 2.3-3.2-.9-.6-1.5 2.1-1.6-1.2 1.4-1.9-.9-.6-1.4 1.9-1.8-1.4 1.5-2.1-.9-.6z"/><path class="st1" d="M25.2 13.2l-.1.2-2.9-1.4-.6 1.3 6.8 3.3 1.2-2.4c.6-1.3.4-2.2-.7-2.7-1-.5-1.7-.4-2.1.2.2-.7 0-1.2-.8-1.6-1.3-.6-2-1.1-2-1.3l-.1-.1-.7 1.4c.2.2.7.5 1.7 1 .3.2.5.3.6.4.2.2.3.4.3.6-.2.3-.3.6-.6 1.1zm2.8 1.7l-1.9-.9.5-1c.2-.5.7-.6 1.3-.3.4.2.6.4.6.6 0 .2 0 .4-.1.7l-.4.9z"/><path class="st2" d="M30.1 5.6l-.4 1.3c.4.1.7.2.8.3.3.2.3.5.2.8-.1.5-.4.7-.9.6-.2-.1-.4-.2-.6-.4-.1-.1-.2-.3-.3-.7-.3-.9-.5-1.6-.8-2-.3-.5-.7-.9-1.4-1-.7-.2-1.2-.1-1.7.2-.5.3-.8.8-1 1.5-.4 1.5.1 2.4 1.6 2.8l.5.1.4-1.4-.4-.1c-.8-.2-1.2-.6-1-1.2.4-.4.8-.6 1.3-.4.4.1.6.4.8.8.2.5.3.9.5 1.3.2.5.4 1 .7 1.3.3.3.6.5 1 .6 1.3.3 2.1-.2 2.5-1.6.3-.9.1-1.6-.4-2.1-.3-.3-.8-.5-1.4-.7z"/><path class="st1" d="M25.2 2.3L25 3.7l7.5 1.1.2-1.4-7.5-1.1zm8.3 1.3l-.2 1.3 1.1.1.2-1.3-1.1-.1z"/><path class="st2" d="M31.7 2.5h1.1l.1-4.7h-1.1v1.6l-6.5-.1V.7l6.5.1-.1 1.7zm-7-8.8l.6 3.9 7.5-1-.6-4-1.1.2.4 2.5-1.9.3-.3-2.3-1.1.1.3 2.3-2.3.4-.4-2.6-1.1.2zm3.6-6l.4 1.3c.4-.1.7-.2.9-.2.3 0 .5.2.6.5.2.5 0 .8-.4 1-.2.1-.5.1-.7 0-.1-.1-.3-.2-.6-.4-.8-.6-1.3-1-1.7-1.2-.5-.3-1.1-.3-1.7-.1-.7.2-1.1.6-1.3 1.1-.2.5-.2 1.1 0 1.8.5 1.5 1.4 1.9 2.9 1.5l.5-.2-.4-1.3-.4.1c-.8.3-1.3.1-1.5-.5-.2-.6 0-.9.6-1.1.4-.1.7 0 1.1.2.4.3.7.6 1.1.9.5.3.9.6 1.2.7.4.1.8.1 1.2 0 1.3-.4 1.7-1.3 1.2-2.7-.3-.9-.8-1.4-1.5-1.5-.3-.2-.8-.1-1.5.1z"/><path class="st1" d="M22.4-12.4l.6 1.3 6.8-3.3-.6-1.3-6.8 3.3zm7.5-3.6l.6 1.2 1-.5-.5-1.3-1.1.6zm-4.3-8.3H13.7l-1 1.8c1.7 1.2 3 2.6 4 4.2 1 1.7 1.5 3.5 1.5 5.5v.4l7.4-11.9zm-19.8 14L-.2.4-5 10.7h9l1.8-2.9v-18.1z"/><path d="M-7.6-24.2c-1.6.5-3.1 1.1-4.5 1.8l2.2 3.7 2.2 3.9c.3-1 .9-1.8 1.8-2.5 1.3-1 3.1-1.5 5.3-1.5 2.3 0 4 .5 5.3 1.5 1.4 1.1 2.2 2.6 2.2 4.7v23.3h10.2v-23.5c0-1.8-.5-3.5-1.4-4.9-.9-1.5-2.1-2.8-3.7-3.9s-3.5-1.9-5.7-2.5c-2.1-.6-4.5-.9-7-.9-2.4-.1-4.7.2-6.9.8zM-18.3-8.9v19.6H-8V7.9L-18.3-8.9z" fill-rule="evenodd" clip-rule="evenodd" fill="#b49455"/><path class="st2" d="M-.2.4l-10.7-18.5-3.6-6.2h-12.1l21.6 35h9L-.2.4zm-.3 22.8c-2.7 0-4.9-2.2-4.9-4.9s2.2-4.9 4.9-4.9 4.9 2.2 4.9 4.9-2.2 4.9-4.9 4.9zm-3.6-53.8h-.8v.2c0 .4.1.7.3.9.2.2.5.3.9.3.3 0 .6-.1.8-.3.2-.2.3-.4.3-.8 0-.2 0-.4-.1-.6-.2-.1-.3-.3-.5-.4l-.3-.3c-.3-.3-.5-.6-.5-.7h1.3v-.7H-5v.1c0 .5.3 1 .8 1.6l.4.4c.2.2.2.4.2.6 0 .1 0 .2-.1.3-.1.1-.1.1-.2.1-.2 0-.3-.2-.3-.6v-.1h.1z"/><path class="st1" d="M-2.4-32v1.7c0 .7.4 1.1 1.1 1.1.4 0 .7-.1.9-.3.1-.2.2-.5.2-1v-1.4c0-.4-.1-.7-.2-.9-.2-.2-.5-.3-.9-.3-.7 0-1.1.4-1.1 1.1zm1.4 0v1.7c0 .3-.1.4-.3.4-.1 0-.2 0-.2-.1v-2.3c0-.1.1-.2.2-.2.2 0 .3.2.3.5zm1.2 0v1.7c0 .7.4 1.1 1.1 1.1.4 0 .7-.1.9-.3.1-.2.2-.5.2-1v-1.4c0-.4-.1-.7-.2-.9-.2-.2-.5-.3-.9-.3-.7 0-1.1.4-1.1 1.1zm1.4 0v1.7c0 .3-.1.4-.3.4-.1 0-.2 0-.2-.1v-2.3c0-.1.1-.2.2-.2.2 0 .3.2.3.5z"/><path class="st2" d="M2.7-30v.7h2.2v-.6c-.3-.5-.5-1.1-.7-1.8-.1-.4-.2-.8-.3-1.3h-.8c0 .2.1.6.2 1.1.1.4.2.8.4 1.1l.3.8H2.7z"/><path d="M-39.3 0c0 21.7 17.6 39.3 39.3 39.3 21.7 0 39.3-17.6 39.3-39.3S21.7-39.3 0-39.3c-21.7 0-39.3 17.6-39.3 39.3h0z" fill="none" stroke="#b49455" stroke-width=".915" stroke-miterlimit="3.864"/><path d="M-43.3 0c0 23.9 19.4 43.3 43.3 43.3S43.3 23.9 43.3 0 23.9-43.3 0-43.3-43.3-23.9-43.3 0h0z" fill="none" stroke="#004a92" stroke-width="1.831" stroke-miterlimit="3.864"/></symbol><path class="st0" d="M59.6 8.8h3.2v12h2.9v-12h3.1V6.4h-9.2zm10.5 8.9h2.7v3.1h-2.7zm11-.5c-.2 1.9-2.4 2.4-3.1.8-.6-1.2-.6-7.3-.1-8.5.3-1.6 2.5-1.6 2.9-.2.2.4.2 1.1.2 2h3c0-1.5-.2-2.6-.7-3.4-1.3-2.5-6.8-2.3-7.9.3-1.1 1.7-1.1 9 0 10.8 1.1 2.6 6.5 2.8 7.8.4.6-.9.8-2.3.8-4.1h-2.9c.1.8 0 1.4 0 1.9zm4.7.5h2.7v3.1h-2.7zM94.3 6h3v14.7h-3zm.1-2v1.3h2.9V3.8h-2.9V4zm11.5 8.6l-2.3-1c-.5-.2-.9-.5-1.1-.7-.4-.4-.5-1.3-.3-1.9.2-.7.7-1.1 1.6-1.1 1.1 0 1.6.7 1.6 2.2h2.9v-.5c0-1.4-.4-2.4-1.3-3.1-1.5-1.2-5.3-1.3-6.7.2-1.5 1.2-1.6 4.7-.2 6.1.6.6 1.6 1.2 2.9 1.7.9.3 1.5.6 1.8.8.9.6 1.1 2.2.3 3-.7.8-2.3.6-2.9-.1-.3-.3-.4-.9-.4-1.6v-.4h-3v.6c0 2.9 1.6 4.3 4.7 4.3 4 .1 5.7-2.4 5-5.8-.1-1.2-1-2.1-2.6-2.7zm3.6-4.2h3.2v12.3h3V8.4h3.2V5.9h-9.4zm13.6-2.5l-3.9 14.8h3.1l.7-3.1h3.9l.7 3.1h3.1l-3.9-14.8h-3.7zm.4 9.3l1.4-6.7 1.4 6.7h-2.8zm15.3.9l-3.6-10.2h-3.4v14.8h2.7V10.3l3.7 10.4h3.4V5.9h-2.8zm11.8-3.1c2.6-.5 2.9-4.9 1.1-6.2-.7-.5-1.7-.8-3-.8h-5v14.8h5c1.6 0 2.8-.4 3.6-1.3 1.1-1.1 1.4-4 .4-5.3-.5-.7-1.2-1.1-2.1-1.2zm-3.9-4.9h1.1c.7 0 1.3.1 1.6.4.7.5.7 2.6-.1 3.1-.4.2-.9.4-1.7.4h-.9V8.1zm1.1 10.4h-1.2v-4.4h1.3c.7 0 1.3.2 1.6.5.4.4.6 1 .6 1.8.1 1.4-.7 2.1-2.3 2.1zm13.7-2.3c0 1.7-.6 2.6-1.7 2.6-1.2 0-1.7-.9-1.7-2.6V5.9h-3v10.3c0 1.8.5 3.1 1.5 3.9 1.4 1.2 5.1 1.2 6.6-.1 1-.8 1.5-2.1 1.5-3.8V5.9h-3v10.3zm7.9 2.1V5.9h-3v14.8h8.2v-2.4zM63.5 27.4l-3.9 14.8h3.1l.7-3.1h3.9l.7 3.1h3.1l-3.9-14.8h-3.7zm.4 9.3l1.4-6.7 1.4 6.7h-2.8zm17.7 4.2c0-.2 0-.7-.1-1.4 0-1.7-.2-2.8-.4-3.3-.3-.7-1-1.1-2-1.2 2.7-.3 3.2-4.8 1.4-6.5-.7-.7-1.7-1-2.9-1h-5.5v14.8h3V36h1.6c1.1 0 1.7.6 1.8 1.9l.1 2.8c0 .7.2 1.3.4 1.6h3.2v-.1c-.3-.2-.5-.6-.6-1.3zm-5.2-7h-1.2v-4.3h1.4c1.4 0 2.1.7 2.1 2 0 1.6-.8 2.3-2.3 2.3zm10.3 1.9h5v-2.4h-5v-3.5H92v-2.5h-8.3v14.9h8.5v-2.5h-5.5zm10-8.4h-3v14.9h8.3v-2.5h-5.3zm16.9-2.6h2.3v2h-2.3zm-3.6 0h2.3v2H110zm4.6 13.1c0 .8-.1 1.4-.3 1.8-.3.5-.7.7-1.4.7-1.1 0-1.7-.8-1.7-2.5V27.7h-3v10.1c0 1.8.5 3.1 1.5 3.8 1.4 1.2 5.1 1.2 6.5-.1 1-.8 1.5-2 1.5-3.7V27.7h-3v10.2zm12-.3l-3.7-10.2h-3.4v14.9h2.7V31.9h.1l3.7 10.4h3.3V27.4h-2.7zm4.9-10.1h3v14.7h-3zm.2-2v1.3h2.9v-1.5h-2.9v.2zm9.4 12.9l-2.1-11h-3.2l3.4 14.9h3.8l3.4-14.9h-3.1zm9.4-2.6h5v-2.4h-5v-3.5h5.3v-2.5h-8.3v14.9h8.5v-2.5h-5.5zm16.4 5.1c0-.2 0-.7-.1-1.4 0-1.7-.2-2.8-.4-3.3-.3-.7-1-1.1-2-1.2 2.7-.3 3.2-4.8 1.4-6.5-.7-.7-1.7-1-2.9-1h-5.5v14.8h3V36h1.6c1.1 0 1.7.6 1.8 1.9l.1 2.8c0 .7.2 1.3.4 1.6h3.2v-.1c-.3-.2-.5-.6-.6-1.3zm-5.2-7h-1.2v-4.3h1.4c1.4 0 2.1.7 2.1 2 0 1.6-.8 2.3-2.3 2.3zm13.8.2l-2.3-1c-.5-.2-.9-.5-1.1-.7-.4-.4-.5-1.3-.3-1.9.2-.7.7-1.1 1.6-1.1 1.1 0 1.6.7 1.6 2.2h2.9v-.4c0-1.4-.4-2.4-1.3-3.1-1.5-1.2-5.3-1.3-6.7.2-1.5 1.2-1.7 4.7-.2 6.1.6.6 1.6 1.2 2.9 1.7.9.3 1.5.6 1.8.8.9.6 1.1 2.2.3 3-.7.8-2.3.6-2.9-.1-.3-.3-.4-.9-.4-1.6v-.4h-3v.6c0 2.9 1.6 4.3 4.7 4.3 3.4 0 5.1-1.5 5.1-4.5.1-2.1-.6-3.2-2.7-4.1zm4.6-8.6v1.3h2.9v-1.5h-2.9v.2zm-.1 2h3v14.7h-3zm4.4 2.4h3.2v12.4h3V29.9h3.2v-2.5h-9.4zm13.7 5.9h5v-2.4h-5v-3.5h5.3v-2.5h-8.3v14.9h8.5v-2.5h-5.5zm13.5-1.7l-2.3-1c-.5-.2-.9-.5-1.1-.7-.4-.4-.5-1.3-.3-1.9.2-.7.7-1.1 1.6-1.1 1.1 0 1.6.7 1.6 2.2h2.9v-.4c0-1.4-.4-2.4-1.3-3.1-1.5-1.2-5.3-1.3-6.7.2-1.5 1.2-1.7 4.7-.2 6.1.6.6 1.6 1.2 2.9 1.7.9.3 1.5.6 1.8.8.9.6 1.1 2.2.3 3-.7.8-2.3.6-2.9-.1-.3-.3-.4-.9-.4-1.6v-.4h-3v.6c0 2.9 1.6 4.3 4.7 4.3 4 .1 5.7-2.4 5-5.8-.2-1.3-1.1-2.1-2.6-2.8zm4.5-8.8v1.6h2.9v-1.5h-2.9zm-.1 2.2h3v14.7h-3z"/><use xlink:href="#New_Symbol_1" width="88.5" height="88.5" x="-44.2" y="-44.2" transform="matrix(.5425 0 0 -.5425 24.004 24)" overflow="visible"/></svg>